<?xml version="1.0" encoding="UTF-8"?>
<!DOCTYPE svg PUBLIC "-//W3C//DTD SVG 1.1//EN" "http://www.w3.org/Graphics/SVG/1.1/DTD/svg11.dtd">
<svg xmlns="http://www.w3.org/2000/svg" version="1.1" width="427px" height="158px" style="shape-rendering:geometricPrecision; text-rendering:geometricPrecision; image-rendering:optimizeQuality; fill-rule:evenodd; clip-rule:evenodd" xmlns:xlink="http://www.w3.org/1999/xlink">
<g><path style="opacity:0.241" fill="#000000" d="M 23.5,25.5 C 61.8333,25.5 100.167,25.5 138.5,25.5C 138.74,63.4181 138.74,101.418 138.5,139.5C 100.202,140.535 61.8686,140.535 23.5,139.5C 23.5,101.5 23.5,63.5 23.5,25.5 Z"/></g>
<g><path style="opacity:0.992" fill="#f3f2f2" d="M 24.5,26.5 C 62.1667,26.5 99.8333,26.5 137.5,26.5C 137.5,63.8333 137.5,101.167 137.5,138.5C 99.8333,138.5 62.1667,138.5 24.5,138.5C 24.5,101.167 24.5,63.8333 24.5,26.5 Z"/></g>
<g><path style="opacity:0.66" fill="#b5b5b5" d="M 375.5,53.5 C 374.549,52.0813 374.216,50.4147 374.5,48.5C 368.077,48.2088 361.744,48.5422 355.5,49.5C 361.75,47.5411 368.416,46.8745 375.5,47.5C 375.5,49.5 375.5,51.5 375.5,53.5 Z"/></g>
<g><path style="opacity:0.992" fill="#f5f5f5" d="M 211.5,53.5 C 212.8,55.223 213.467,57.3897 213.5,60C 213.467,62.6103 212.8,64.777 211.5,66.5C 210.876,66.9169 210.543,67.5836 210.5,68.5C 211.592,71.0444 212.259,73.7111 212.5,76.5C 211.717,80.648 210.717,84.648 209.5,88.5C 204.167,88.5 198.833,88.5 193.5,88.5C 191.833,88.5 190.167,88.5 188.5,88.5C 188.5,75.1667 188.5,61.8333 188.5,48.5C 195.5,48.5 202.5,48.5 209.5,48.5C 209.077,50.7812 209.744,52.4479 211.5,53.5 Z M 203.5,64.5 C 201.5,64.5 199.5,64.5 197.5,64.5C 197.5,61.8333 197.5,59.1667 197.5,56.5C 199.5,56.5 201.5,56.5 203.5,56.5C 203.5,59.1667 203.5,61.8333 203.5,64.5 Z M 197.5,72.5 C 199.5,72.5 201.5,72.5 203.5,72.5C 203.5,75.1667 203.5,77.8333 203.5,80.5C 201.5,80.5 199.5,80.5 197.5,80.5C 197.5,77.8333 197.5,75.1667 197.5,72.5 Z"/></g>
<g><path style="opacity:0.998" fill="#fdfdfd" d="M 235.5,88.5 C 229.729,89.1128 224.396,88.4461 219.5,86.5C 218.833,82.5 220.5,80.8333 224.5,81.5C 224.5,72.8333 224.5,64.1667 224.5,55.5C 223.167,55.5 221.833,55.5 220.5,55.5C 220.5,53.1667 220.5,50.8333 220.5,48.5C 225.5,48.5 230.5,48.5 235.5,48.5C 235.5,50.8333 235.5,53.1667 235.5,55.5C 234.167,55.5 232.833,55.5 231.5,55.5C 231.255,64.2075 231.589,72.8742 232.5,81.5C 233.5,81.5 234.5,81.5 235.5,81.5C 235.5,83.8333 235.5,86.1667 235.5,88.5 Z"/></g>
<g><path style="opacity:0.997" fill="#f0f0f0" d="M 266.5,53.5 C 267.748,54.3339 268.415,55.6672 268.5,57.5C 268.318,60.2263 267.818,62.8929 267,65.5C 265.989,66.3366 264.822,66.67 263.5,66.5C 262.379,69.5911 262.713,72.5911 264.5,75.5C 267.5,79.1238 268.833,83.4571 268.5,88.5C 265.428,88.8174 262.428,88.4841 259.5,87.5C 258.754,86.2638 258.421,84.9305 258.5,83.5C 257.952,81.3736 257.285,79.3736 256.5,77.5C 255.065,76.2102 254.065,74.5435 253.5,72.5C 252.671,77.4671 252.171,82.4671 252,87.5C 249.281,88.4438 246.448,88.7771 243.5,88.5C 243.5,75.1667 243.5,61.8333 243.5,48.5C 250.5,48.5 257.5,48.5 264.5,48.5C 264.077,50.7812 264.744,52.4479 266.5,53.5 Z M 257.5,64.5 C 255.833,64.5 254.167,64.5 252.5,64.5C 252.634,62.7085 252.301,61.0418 251.5,59.5C 252.404,58.791 252.737,57.791 252.5,56.5C 254.167,56.5 255.833,56.5 257.5,56.5C 257.5,59.1667 257.5,61.8333 257.5,64.5 Z"/></g>
<g><path style="opacity:0.998" fill="#efefef" d="M 292.5,55.5 C 294.188,62.6981 294.855,70.0315 294.5,77.5C 293.146,81.0591 291.479,84.5591 289.5,88C 282.918,88.81 276.418,88.6433 270,87.5C 269.333,74.5 269.333,61.5 270,48.5C 276.418,47.3567 282.918,47.19 289.5,48C 290.281,50.6187 291.281,53.1187 292.5,55.5 Z M 285.5,75.5 C 283.744,76.5521 283.077,78.2188 283.5,80.5C 282.167,80.5 280.833,80.5 279.5,80.5C 279.5,72.5 279.5,64.5 279.5,56.5C 280.833,56.5 282.167,56.5 283.5,56.5C 283.151,59.0448 283.984,61.0448 286,62.5C 286.629,66.8706 286.463,71.204 285.5,75.5 Z"/></g>
<g><path style="opacity:0.997" fill="#f4f4f4" d="M 318.5,48.5 C 319.833,50.8333 319.833,53.1667 318.5,55.5C 317.167,55.5 315.833,55.5 314.5,55.5C 314.174,64.0168 314.507,72.3501 315.5,80.5C 319.335,81.4457 320.335,83.779 318.5,87.5C 312.872,88.4954 307.206,88.8288 301.5,88.5C 301.5,85.8333 301.5,83.1667 301.5,80.5C 302.833,80.5 304.167,80.5 305.5,80.5C 306.493,72.3501 306.826,64.0168 306.5,55.5C 305.167,55.5 303.833,55.5 302.5,55.5C 302.5,53.1667 302.5,50.8333 302.5,48.5C 307.833,48.5 313.167,48.5 318.5,48.5 Z"/></g>
<g><path style="opacity:0.997" fill="#f8f8f8" d="M 337.5,64.5 C 340.85,64.335 344.183,64.5017 347.5,65C 348.833,67.3333 348.833,69.6667 347.5,72C 344.183,72.4983 340.85,72.665 337.5,72.5C 336.523,75.2869 336.19,78.2869 336.5,81.5C 339.85,81.335 343.183,81.5017 346.5,82C 347.38,83.3561 347.714,84.8561 347.5,86.5C 341.588,88.4563 335.255,89.1229 328.5,88.5C 328.5,75.1667 328.5,61.8333 328.5,48.5C 334.5,48.5 340.5,48.5 346.5,48.5C 346.5,50.8333 346.5,53.1667 346.5,55.5C 343.167,55.5 339.833,55.5 336.5,55.5C 336.19,58.7131 336.523,61.7131 337.5,64.5 Z"/></g>
<g><path style="opacity:0.998" fill="#f8f8f8" d="M 375.5,53.5 C 376.5,53.5 377.5,53.5 378.5,53.5C 378.802,56.0593 378.468,58.3926 377.5,60.5C 374.833,60.5 372.167,60.5 369.5,60.5C 369.5,58.8333 369.5,57.1667 369.5,55.5C 366.5,55.5 363.5,55.5 360.5,55.5C 360.19,58.7131 360.523,61.7131 361.5,64.5C 365.833,64.5 370.167,64.5 374.5,64.5C 375.154,68.4755 375.821,72.4755 376.5,76.5C 375.821,80.5245 375.154,84.5245 374.5,88.5C 368.5,88.5 362.5,88.5 356.5,88.5C 356.5,86.5 356.5,84.5 356.5,82.5C 355.5,82.5 354.5,82.5 353.5,82.5C 353.5,80.1667 353.5,77.8333 353.5,75.5C 355.833,75.5 358.167,75.5 360.5,75.5C 360.261,77.4672 360.594,79.3005 361.5,81C 364.146,81.4974 366.813,81.6641 369.5,81.5C 369.5,78.1667 369.5,74.8333 369.5,71.5C 364.833,71.5 360.167,71.5 355.5,71.5C 354.833,69.8333 354.167,68.1667 353.5,66.5C 353.5,62.1667 353.5,57.8333 353.5,53.5C 354.167,52.1667 354.833,50.8333 355.5,49.5C 361.744,48.5422 368.077,48.2088 374.5,48.5C 374.216,50.4147 374.549,52.0813 375.5,53.5 Z"/></g>
<g><path style="opacity:0.549" fill="#9e9e9e" d="M 266.5,53.5 C 264.744,52.4479 264.077,50.7812 264.5,48.5C 257.5,48.5 250.5,48.5 243.5,48.5C 243.5,61.8333 243.5,75.1667 243.5,88.5C 242.661,87.3588 241.994,86.0255 241.5,84.5C 242.48,72.217 242.813,59.8836 242.5,47.5C 250.167,47.5 257.833,47.5 265.5,47.5C 265.325,49.6208 265.659,51.6208 266.5,53.5 Z"/></g>
<g><path style="opacity:0.541" fill="#989898" d="M 337.5,64.5 C 336.523,61.7131 336.19,58.7131 336.5,55.5C 339.833,55.5 343.167,55.5 346.5,55.5C 346.5,53.1667 346.5,50.8333 346.5,48.5C 340.5,48.5 334.5,48.5 328.5,48.5C 328.5,61.8333 328.5,75.1667 328.5,88.5C 327.504,75.0102 327.171,61.3435 327.5,47.5C 334.2,47.17 340.866,47.5033 347.5,48.5C 348.833,50.8333 348.833,53.1667 347.5,55.5C 344.232,56.487 340.898,56.8204 337.5,56.5C 337.5,59.1667 337.5,61.8333 337.5,64.5 Z"/></g>
<g><path style="opacity:0.145" fill="#0a0a0a" d="M 187.5,48.5 C 187.171,62.0105 187.504,75.3438 188.5,88.5C 190.167,88.5 191.833,88.5 193.5,88.5C 192.003,89.3058 190.336,89.9724 188.5,90.5C 187.914,90.2907 187.414,89.9574 187,89.5C 186.813,77.7874 186.313,66.1207 185.5,54.5C 186.05,52.3432 186.717,50.3432 187.5,48.5 Z"/></g>
<g><path style="opacity:0.461" fill="#929292" d="M 377.5,60.5 C 374.713,61.4767 371.713,61.81 368.5,61.5C 368.5,59.8333 368.5,58.1667 368.5,56.5C 366.396,56.2011 364.396,56.5344 362.5,57.5C 362.001,59.891 361.668,62.2244 361.5,64.5C 360.523,61.7131 360.19,58.7131 360.5,55.5C 363.5,55.5 366.5,55.5 369.5,55.5C 369.5,57.1667 369.5,58.8333 369.5,60.5C 372.167,60.5 374.833,60.5 377.5,60.5 Z"/></g>
<g><path style="opacity:0.024" fill="#5f5f5f" d="M 203.5,64.5 C 203.5,61.8333 203.5,59.1667 203.5,56.5C 201.5,56.5 199.5,56.5 197.5,56.5C 197.5,59.1667 197.5,61.8333 197.5,64.5C 196.523,61.7131 196.19,58.7131 196.5,55.5C 199.167,55.5 201.833,55.5 204.5,55.5C 204.81,58.7131 204.477,61.7131 203.5,64.5 Z M 203.5,64.5 C 201.5,64.5 199.5,64.5 197.5,64.5C 197.5,61.8333 197.5,59.1667 197.5,56.5C 199.5,56.5 201.5,56.5 203.5,56.5C 203.5,59.1667 203.5,61.8333 203.5,64.5 Z"/></g>
<g><path style="opacity:0.306" fill="#878787" d="M 257.5,64.5 C 257.5,61.8333 257.5,59.1667 257.5,56.5C 255.833,56.5 254.167,56.5 252.5,56.5C 252.737,57.791 252.404,58.791 251.5,59.5C 251.5,58.1667 251.5,56.8333 251.5,55.5C 253.833,55.5 256.167,55.5 258.5,55.5C 258.81,58.7131 258.477,61.7131 257.5,64.5 Z"/></g>
<g><path style="opacity:0.412" fill="#a2a2a2" d="M 318.5,48.5 C 313.167,48.5 307.833,48.5 302.5,48.5C 302.5,50.8333 302.5,53.1667 302.5,55.5C 303.833,55.5 305.167,55.5 306.5,55.5C 306.826,64.0168 306.493,72.3501 305.5,80.5C 305.5,72.5 305.5,64.5 305.5,56.5C 304.167,56.5 302.833,56.5 301.5,56.5C 301.5,53.5 301.5,50.5 301.5,47.5C 307.358,47.1778 313.025,47.5111 318.5,48.5 Z"/></g>
<g><path style="opacity:0.743" fill="#979797" d="M 353.5,53.5 C 353.5,57.8333 353.5,62.1667 353.5,66.5C 352.335,65.5039 351.668,64.1705 351.5,62.5C 352.69,60.641 352.69,58.8077 351.5,57C 351.808,55.5405 352.475,54.3739 353.5,53.5 Z"/></g>
<g><path style="opacity:1" fill="#f3e0d6" d="M 87.5,62.5 C 82.4884,69.205 77.4884,75.8716 72.5,82.5C 72.1015,79.9435 71.7681,77.2768 71.5,74.5C 69.8171,72.4864 67.8171,70.8198 65.5,69.5C 64.4717,71.3615 62.9717,72.6948 61,73.5C 60.5006,78.8229 60.334,84.1563 60.5,89.5C 59.3483,84.0154 59.1816,78.3487 60,72.5C 62.1102,69.1097 63.7768,65.4431 65,61.5C 67.2102,58.2856 70.2102,56.2856 74,55.5C 76.6898,55.7502 79.5231,56.4168 82.5,57.5C 82.9988,60.2639 84.6655,61.9305 87.5,62.5 Z"/></g>
<g><path style="opacity:0.094" fill="#4c4c4c" d="M 318.5,55.5 C 317.791,56.404 316.791,56.7373 315.5,56.5C 315.5,64.5 315.5,72.5 315.5,80.5C 314.507,72.3501 314.174,64.0168 314.5,55.5C 315.833,55.5 317.167,55.5 318.5,55.5 Z"/></g>
<g><path style="opacity:0.763" fill="#969696" d="M 211.5,53.5 C 209.744,52.4479 209.077,50.7812 209.5,48.5C 202.5,48.5 195.5,48.5 188.5,48.5C 188.5,61.8333 188.5,75.1667 188.5,88.5C 187.504,75.3438 187.171,62.0105 187.5,48.5C 187.97,47.3065 188.97,46.6399 190.5,46.5C 197.136,47.3805 203.803,47.7139 210.5,47.5C 210.517,49.5648 210.85,51.5648 211.5,53.5 Z"/></g>
<g><path style="opacity:0.722" fill="#9c9c9c" d="M 235.5,88.5 C 235.5,86.1667 235.5,83.8333 235.5,81.5C 234.5,81.5 233.5,81.5 232.5,81.5C 231.589,72.8742 231.255,64.2075 231.5,55.5C 232.833,55.5 234.167,55.5 235.5,55.5C 235.5,53.1667 235.5,50.8333 235.5,48.5C 230.5,48.5 225.5,48.5 220.5,48.5C 220.5,50.8333 220.5,53.1667 220.5,55.5C 221.833,55.5 223.167,55.5 224.5,55.5C 224.5,64.1667 224.5,72.8333 224.5,81.5C 220.5,80.8333 218.833,82.5 219.5,86.5C 218.387,85.0536 218.22,83.3869 219,81.5C 220.011,80.6634 221.178,80.33 222.5,80.5C 223.412,73.6281 223.745,66.7948 223.5,60C 222.981,57.8133 221.648,56.3133 219.5,55.5C 218.167,53.1667 218.167,50.8333 219.5,48.5C 225.167,47.1667 230.833,47.1667 236.5,48.5C 238.415,52.4785 237.415,55.3119 233.5,57C 232.941,57.7247 232.608,58.5581 232.5,59.5C 232.472,66.5608 232.806,73.5608 233.5,80.5C 237.143,81.3822 238.31,83.7155 237,87.5C 236.617,88.056 236.117,88.3893 235.5,88.5 Z"/></g>
<g><path style="opacity:0.647" fill="#aeaeae" d="M 292.5,55.5 C 293.158,56.3984 293.824,57.3984 294.5,58.5C 295.817,64.9883 295.817,71.3217 294.5,77.5C 294.855,70.0315 294.188,62.6981 292.5,55.5 Z"/></g>
<g><path style="opacity:0.912" fill="#b4b4b4" d="M 374.5,64.5 C 375.058,66.7894 376.224,68.7894 378,70.5C 379.365,77.17 378.198,83.17 374.5,88.5C 375.154,84.5245 375.821,80.5245 376.5,76.5C 375.821,72.4755 375.154,68.4755 374.5,64.5 Z"/></g>
<g><path style="opacity:0.361" fill="#8e8e8e" d="M 263.5,66.5 C 263.963,69.4824 264.296,72.4824 264.5,75.5C 262.713,72.5911 262.379,69.5911 263.5,66.5 Z"/></g>
<g><path style="opacity:0.729" fill="#929292" d="M 285.5,75.5 C 286.463,71.204 286.629,66.8706 286,62.5C 283.984,61.0448 283.151,59.0448 283.5,56.5C 282.167,56.5 280.833,56.5 279.5,56.5C 279.5,64.5 279.5,72.5 279.5,80.5C 278.507,72.3501 278.174,64.0168 278.5,55.5C 280.5,55.5 282.5,55.5 284.5,55.5C 284.151,58.0448 284.984,60.0448 287,61.5C 287.167,63.8333 287.333,66.1667 287.5,68.5C 287.471,71.2695 286.805,73.6028 285.5,75.5 Z"/></g>
<g><path style="opacity:1" fill="#f4d1bb" d="M 72.5,82.5 C 69.3046,87.5687 65.6379,92.2354 61.5,96.5C 61.552,94.0971 61.2186,91.7638 60.5,89.5C 60.334,84.1563 60.5006,78.8229 61,73.5C 62.9717,72.6948 64.4717,71.3615 65.5,69.5C 67.8171,70.8198 69.8171,72.4864 71.5,74.5C 71.7681,77.2768 72.1015,79.9435 72.5,82.5 Z"/></g>
<g><path style="opacity:0.494" fill="#848484" d="M 211.5,66.5 C 214.576,74.2725 213.909,81.6058 209.5,88.5C 210.717,84.648 211.717,80.648 212.5,76.5C 212.259,73.7111 211.592,71.0444 210.5,68.5C 210.543,67.5836 210.876,66.9169 211.5,66.5 Z"/></g>
<g><path style="opacity:0.196" fill="#555555" d="M 256.5,77.5 C 257.285,79.3736 257.952,81.3736 258.5,83.5C 256.692,82.0821 256.025,80.0821 256.5,77.5 Z"/></g>
<g><path style="opacity:1" fill="#f88153" d="M 103.5,81.5 C 103.648,86.3188 102.982,90.9855 101.5,95.5C 101.167,95.5 100.833,95.5 100.5,95.5C 98.2239,95.2435 97.0572,93.9102 97,91.5C 96,92.8333 95,92.8333 94,91.5C 93.5272,89.221 92.5272,87.221 91,85.5C 90.6667,85.8333 90.3333,86.1667 90,86.5C 89.2924,83.7324 87.7924,82.8991 85.5,84C 86.2524,83.3292 86.5858,82.4959 86.5,81.5C 87.8333,79.5 89.1667,77.5 90.5,75.5C 96.6062,73.3833 100.939,75.3833 103.5,81.5 Z"/></g>
<g><path style="opacity:0.684" fill="#898989" d="M 337.5,72.5 C 337.5,75.1667 337.5,77.8333 337.5,80.5C 340.85,80.335 344.183,80.5017 347.5,81C 348.807,82.9435 348.807,84.7768 347.5,86.5C 347.714,84.8561 347.38,83.3561 346.5,82C 343.183,81.5017 339.85,81.335 336.5,81.5C 336.19,78.2869 336.523,75.2869 337.5,72.5 Z"/></g>
<g><path style="opacity:0.685" fill="#b0b0b0" d="M 355.5,71.5 C 360.167,71.5 364.833,71.5 369.5,71.5C 369.5,74.8333 369.5,78.1667 369.5,81.5C 366.813,81.6641 364.146,81.4974 361.5,81C 360.594,79.3005 360.261,77.4672 360.5,75.5C 361.931,76.7804 362.598,78.4471 362.5,80.5C 364.5,80.5 366.5,80.5 368.5,80.5C 368.5,77.8333 368.5,75.1667 368.5,72.5C 363.968,72.8182 359.634,72.4849 355.5,71.5 Z"/></g>
<g><path style="opacity:0.852" fill="#aeaeae" d="M 353.5,75.5 C 353.5,77.8333 353.5,80.1667 353.5,82.5C 354.5,82.5 355.5,82.5 356.5,82.5C 356.5,84.5 356.5,86.5 356.5,88.5C 354.556,85.5699 352.89,82.4032 351.5,79C 351.808,77.5405 352.475,76.3739 353.5,75.5 Z"/></g>
<g><path style="opacity:1" fill="#36312e" d="M 103.5,81.5 C 100.939,75.3833 96.6062,73.3833 90.5,75.5C 87.263,78.0702 84.263,81.0702 81.5,84.5C 76.8996,90.7175 72.5663,97.0508 68.5,103.5C 65.8079,105.203 63.8079,107.536 62.5,110.5C 58.8333,111.833 55.1667,111.833 51.5,110.5C 55.2464,106.094 58.5797,101.427 61.5,96.5C 65.6379,92.2354 69.3046,87.5687 72.5,82.5C 77.4884,75.8716 82.4884,69.205 87.5,62.5C 93.3311,57.9758 98.4978,58.6425 103,64.5C 104.023,68.758 106.523,71.5913 110.5,73C 108.302,76.0228 105.969,78.8562 103.5,81.5 Z"/></g>
<g><path style="opacity:1" fill="#fc905b" d="M 86.5,81.5 C 86.5858,82.4959 86.2524,83.3292 85.5,84C 87.7924,82.8991 89.2924,83.7324 90,86.5C 90.3333,86.1667 90.6667,85.8333 91,85.5C 92.5272,87.221 93.5272,89.221 94,91.5C 95,92.8333 96,92.8333 97,91.5C 97.0572,93.9102 98.2239,95.2435 100.5,95.5C 98.7587,97.9774 97.2587,100.644 96,103.5C 94.9887,104.337 93.8221,104.67 92.5,104.5C 92.6602,102.801 92.4935,101.134 92,99.5C 89.7871,98.1981 87.4537,97.1981 85,96.5C 85.0534,94.0641 84.8867,91.7308 84.5,89.5C 83.8076,90.0253 83.3076,90.6919 83,91.5C 82.2917,90.6195 81.4584,89.9528 80.5,89.5C 82.1468,86.5265 84.1468,83.8599 86.5,81.5 Z"/></g>
<g><path style="opacity:1" fill="#fd9d67" d="M 80.5,89.5 C 81.4584,89.9528 82.2917,90.6195 83,91.5C 83.3076,90.6919 83.8076,90.0253 84.5,89.5C 84.8867,91.7308 85.0534,94.0641 85,96.5C 87.4537,97.1981 89.7871,98.1981 92,99.5C 92.4935,101.134 92.6602,102.801 92.5,104.5C 92.3152,106.89 90.9818,107.89 88.5,107.5C 85.0612,105.024 81.7279,105.024 78.5,107.5C 77.1585,105.995 75.4918,105.328 73.5,105.5C 73.1489,103.131 72.9822,100.797 73,98.5C 75.7192,95.6203 78.2192,92.6203 80.5,89.5 Z"/></g>
<g><path style="opacity:1" fill="#f1a87a" d="M 90.5,75.5 C 89.1667,77.5 87.8333,79.5 86.5,81.5C 84.1468,83.8599 82.1468,86.5265 80.5,89.5C 78.2192,92.6203 75.7192,95.6203 73,98.5C 72.9822,100.797 73.1489,103.131 73.5,105.5C 75.4918,105.328 77.1585,105.995 78.5,107.5C 81.7279,105.024 85.0612,105.024 88.5,107.5C 90.9818,107.89 92.3152,106.89 92.5,104.5C 93.8221,104.67 94.9887,104.337 96,103.5C 97.2587,100.644 98.7587,97.9774 100.5,95.5C 100.833,95.5 101.167,95.5 101.5,95.5C 97.025,107.575 88.3584,112.741 75.5,111C 72.2608,109.264 69.9274,106.764 68.5,103.5C 72.5663,97.0508 76.8996,90.7175 81.5,84.5C 84.263,81.0702 87.263,78.0702 90.5,75.5 Z"/></g>
</svg>
