<?xml version="1.0" encoding="UTF-8"?>
<!DOCTYPE svg PUBLIC "-//W3C//DTD SVG 1.1//EN" "http://www.w3.org/Graphics/SVG/1.1/DTD/svg11.dtd">
<svg xmlns="http://www.w3.org/2000/svg" version="1.1" width="736px" height="552px" style="shape-rendering:geometricPrecision; text-rendering:geometricPrecision; image-rendering:optimizeQuality; fill-rule:evenodd; clip-rule:evenodd" xmlns:xlink="http://www.w3.org/1999/xlink">
<g><path style="opacity:0.966" fill="#f6efed" d="M 466.5,161.5 C 461.968,161.182 457.634,161.515 453.5,162.5C 436.939,163.461 422.272,169.128 409.5,179.5C 409.631,178.761 409.464,178.094 409,177.5C 406.683,179.316 404.516,181.316 402.5,183.5C 401.445,180.822 400.112,178.322 398.5,176C 393.863,175.171 389.196,174.671 384.5,174.5C 384.5,172.167 384.5,169.833 384.5,167.5C 382.833,167.5 381.167,167.5 379.5,167.5C 379.5,164.833 379.5,162.167 379.5,159.5C 375.865,158.886 372.198,158.552 368.5,158.5C 368.084,153.507 367.751,148.507 367.5,143.5C 362.167,143.5 356.833,143.5 351.5,143.5C 351.5,141.5 351.5,139.5 351.5,137.5C 344.585,137.602 337.918,137.602 331.5,137.5C 359.682,129.346 387.682,130.179 415.5,140C 432.138,148.328 449.138,155.494 466.5,161.5 Z"/></g>
<g><path style="opacity:0.999" fill="#f6e9e2" d="M 331.5,137.5 C 337.918,137.602 344.585,137.602 351.5,137.5C 351.5,139.5 351.5,141.5 351.5,143.5C 356.833,143.5 362.167,143.5 367.5,143.5C 367.751,148.507 368.084,153.507 368.5,158.5C 372.198,158.552 375.865,158.886 379.5,159.5C 379.5,162.167 379.5,164.833 379.5,167.5C 381.167,167.5 382.833,167.5 384.5,167.5C 384.5,169.833 384.5,172.167 384.5,174.5C 389.196,174.671 393.863,175.171 398.5,176C 400.112,178.322 401.445,180.822 402.5,183.5C 404.516,181.316 406.683,179.316 409,177.5C 409.464,178.094 409.631,178.761 409.5,179.5C 401.167,188.5 392.5,197.167 383.5,205.5C 380.985,206.164 378.819,207.497 377,209.5C 376.83,207.017 377.664,204.851 379.5,203C 378.451,202.508 377.451,202.674 376.5,203.5C 376.446,202.47 376.112,201.303 375.5,200C 373.866,199.506 372.199,199.34 370.5,199.5C 370.5,194.167 370.5,188.833 370.5,183.5C 369.5,183.5 368.5,183.5 367.5,183.5C 367.5,185.833 367.5,188.167 367.5,190.5C 362.5,190.5 357.5,190.5 352.5,190.5C 352.5,185.5 352.5,180.5 352.5,175.5C 349.5,175.5 346.5,175.5 343.5,175.5C 343.5,172.833 343.5,170.167 343.5,167.5C 340.833,167.5 338.167,167.5 335.5,167.5C 335.5,164.833 335.5,162.167 335.5,159.5C 332.833,159.5 330.167,159.5 327.5,159.5C 327.5,156.833 327.5,154.167 327.5,151.5C 324.29,149.646 321.29,147.312 318.5,144.5C 317.205,145.098 315.872,145.598 314.5,146C 314.167,147 313.833,148 313.5,149C 307.954,150.113 302.621,151.78 297.5,154C 295.924,155.73 294.59,157.563 293.5,159.5C 290.575,159.46 287.909,160.293 285.5,162C 282.695,166.808 278.695,170.142 273.5,172C 271.959,173.371 270.625,174.871 269.5,176.5C 264.789,180.883 260.789,185.883 257.5,191.5C 256.833,191.5 256.167,191.5 255.5,191.5C 274.359,164.679 299.692,146.679 331.5,137.5 Z"/></g>
<g><path style="opacity:1" fill="#f6e5dd" d="M 383.5,205.5 C 378.5,211.167 373.167,216.5 367.5,221.5C 365.339,221.826 363.506,222.826 362,224.5C 358.943,223.549 355.777,223.216 352.5,223.5C 352.167,218.167 351.833,212.833 351.5,207.5C 346.167,207.167 340.833,206.833 335.5,206.5C 335.5,201.5 335.5,196.5 335.5,191.5C 330.463,191.587 325.463,191.254 320.5,190.5C 319.981,185.611 319.315,180.778 318.5,176C 313.582,175.805 308.749,175.305 304,174.5C 302.358,168.186 302.191,161.853 303.5,155.5C 302.127,155.343 300.793,155.51 299.5,156C 297.595,157.421 295.595,158.588 293.5,159.5C 294.59,157.563 295.924,155.73 297.5,154C 302.621,151.78 307.954,150.113 313.5,149C 313.833,148 314.167,147 314.5,146C 315.872,145.598 317.205,145.098 318.5,144.5C 321.29,147.312 324.29,149.646 327.5,151.5C 327.5,154.167 327.5,156.833 327.5,159.5C 330.167,159.5 332.833,159.5 335.5,159.5C 335.5,162.167 335.5,164.833 335.5,167.5C 338.167,167.5 340.833,167.5 343.5,167.5C 343.5,170.167 343.5,172.833 343.5,175.5C 346.5,175.5 349.5,175.5 352.5,175.5C 352.5,180.5 352.5,185.5 352.5,190.5C 357.5,190.5 362.5,190.5 367.5,190.5C 367.5,188.167 367.5,185.833 367.5,183.5C 368.5,183.5 369.5,183.5 370.5,183.5C 370.5,188.833 370.5,194.167 370.5,199.5C 372.199,199.34 373.866,199.506 375.5,200C 376.112,201.303 376.446,202.47 376.5,203.5C 377.451,202.674 378.451,202.508 379.5,203C 377.664,204.851 376.83,207.017 377,209.5C 378.819,207.497 380.985,206.164 383.5,205.5 Z"/></g>
<g><path style="opacity:1" fill="#f6e2d6" d="M 367.5,221.5 C 365.167,224.5 362.5,227.167 359.5,229.5C 357.508,229.328 355.842,229.995 354.5,231.5C 353.798,229.533 353.798,227.866 354.5,226.5C 353.038,227.471 351.705,227.138 350.5,225.5C 345.68,223.782 340.847,223.448 336,224.5C 335.5,224 335,223.5 334.5,223C 335.237,218.246 335.237,213.412 334.5,208.5C 324.5,207.833 314.5,207.167 304.5,206.5C 304.084,201.507 303.751,196.507 303.5,191.5C 298.821,191.666 294.155,191.499 289.5,191C 288.232,186.287 287.565,181.454 287.5,176.5C 283.323,177.158 281.823,175.492 283,171.5C 284.085,170.707 285.252,170.04 286.5,169.5C 287.833,168.167 287.833,166.833 286.5,165.5C 281.502,170.455 275.835,174.121 269.5,176.5C 270.625,174.871 271.959,173.371 273.5,172C 278.695,170.142 282.695,166.808 285.5,162C 287.909,160.293 290.575,159.46 293.5,159.5C 295.595,158.588 297.595,157.421 299.5,156C 300.793,155.51 302.127,155.343 303.5,155.5C 302.191,161.853 302.358,168.186 304,174.5C 308.749,175.305 313.582,175.805 318.5,176C 319.315,180.778 319.981,185.611 320.5,190.5C 325.463,191.254 330.463,191.587 335.5,191.5C 335.5,196.5 335.5,201.5 335.5,206.5C 340.833,206.833 346.167,207.167 351.5,207.5C 351.833,212.833 352.167,218.167 352.5,223.5C 355.777,223.216 358.943,223.549 362,224.5C 363.506,222.826 365.339,221.826 367.5,221.5 Z"/></g>
<g><path style="opacity:0.125" fill="#bdbab7" d="M 453.5,162.5 C 457.634,161.515 461.968,161.182 466.5,161.5C 471.809,162.076 476.809,163.409 481.5,165.5C 472.333,163.088 462.999,162.088 453.5,162.5 Z"/></g>
<g><path style="opacity:1" fill="#302f2f" d="M 453.5,162.5 C 462.999,162.088 472.333,163.088 481.5,165.5C 482.492,165.328 483.158,165.662 483.5,166.5C 484.78,167.931 486.447,168.598 488.5,168.5C 491.331,169.079 493.664,170.412 495.5,172.5C 495.973,173.906 496.973,174.573 498.5,174.5C 509.736,182.912 518.236,193.579 524,206.5C 526.335,209.665 528.835,212.665 531.5,215.5C 532.262,217.262 533.596,218.262 535.5,218.5C 535.973,219.906 536.973,220.573 538.5,220.5C 543.67,223.11 549.003,225.11 554.5,226.5C 555.263,227.268 556.263,227.768 557.5,228C 555.606,229.079 555.273,230.413 556.5,232C 555.256,232.456 554.423,231.956 554,230.5C 553.5,231 553,231.5 552.5,232C 553.38,233.356 553.714,234.856 553.5,236.5C 541.419,249.248 529.086,261.581 516.5,273.5C 516.167,273.5 515.833,273.5 515.5,273.5C 513.695,265.881 509.861,259.547 504,254.5C 501.742,249.458 497.908,246.458 492.5,245.5C 488.317,243.243 483.984,241.243 479.5,239.5C 477.629,238.203 475.629,237.203 473.5,236.5C 473.423,235.25 472.756,234.417 471.5,234C 459.5,233.667 447.5,233.333 435.5,233C 434.584,232.626 433.75,232.126 433,231.5C 431.727,233.572 429.893,234.905 427.5,235.5C 426.772,237.193 425.772,238.693 424.5,240C 422.1,240.186 419.766,240.686 417.5,241.5C 414.311,244.857 410.978,248.023 407.5,251C 405.866,251.494 404.199,251.66 402.5,251.5C 402.53,247.789 401.53,247.122 399.5,249.5C 403.583,252.53 403.416,255.197 399,257.5C 398.51,258.793 398.343,260.127 398.5,261.5C 398.158,262.338 397.492,262.672 396.5,262.5C 395.559,259.875 394.393,259.875 393,262.5C 391.742,259.945 389.909,259.278 387.5,260.5C 390.987,261.509 392.32,263.842 391.5,267.5C 387.358,267.403 385.024,269.403 384.5,273.5C 383.914,273.291 383.414,272.957 383,272.5C 381.229,275.43 379.729,278.43 378.5,281.5C 374.48,285.189 370.48,288.855 366.5,292.5C 363.167,292.5 361.5,294.167 361.5,297.5C 357.036,298.298 354.703,300.964 354.5,305.5C 351.158,308.509 348.158,311.843 345.5,315.5C 344.167,316.5 342.833,317.5 341.5,318.5C 340.167,318.5 338.833,318.5 337.5,318.5C 337.5,319.5 337.5,320.5 337.5,321.5C 336.5,321.5 335.5,321.5 334.5,321.5C 334.5,322.5 334.5,323.5 334.5,324.5C 331.043,324.96 329.377,326.96 329.5,330.5C 326.782,333.545 324.116,336.545 321.5,339.5C 318.859,341.804 316.192,344.138 313.5,346.5C 309.168,347.985 305.168,350.152 301.5,353C 298.562,355.318 297.562,358.152 298.5,361.5C 297.833,361.5 297.5,361.833 297.5,362.5C 293.869,361.771 291.869,363.438 291.5,367.5C 287.547,369.174 284.214,371.84 281.5,375.5C 280.675,376.386 279.675,376.719 278.5,376.5C 278.433,377.959 278.766,379.292 279.5,380.5C 278.599,381.29 277.932,382.29 277.5,383.5C 266.032,394.8 254.365,405.966 242.5,417C 231,417.167 219.5,417.333 208,417.5C 196.147,417.499 184.647,416.832 173.5,415.5C 177.167,412.5 180.5,409.167 183.5,405.5C 183.5,404.833 183.833,404.5 184.5,404.5C 187.167,402.5 189.5,400.167 191.5,397.5C 191.5,396.833 191.833,396.5 192.5,396.5C 197.833,391.833 202.833,386.833 207.5,381.5C 215.167,373.167 223.167,365.167 231.5,357.5C 236.5,353.167 241.167,348.5 245.5,343.5C 246.167,343.167 246.833,342.833 247.5,342.5C 248.978,342.762 250.311,342.429 251.5,341.5C 256.79,335.841 262.123,330.175 267.5,324.5C 268.086,324.709 268.586,325.043 269,325.5C 269.333,324.167 269.667,322.833 270,321.5C 273.876,318.325 277.376,314.825 280.5,311C 282.693,311.57 284.693,311.236 286.5,310C 287.833,308.333 287.833,306.667 286.5,305C 289.64,302.772 292.306,300.105 294.5,297C 294.272,296.601 293.938,296.435 293.5,296.5C 296.833,292.833 300.167,289.167 303.5,285.5C 305.833,283.833 307.833,281.833 309.5,279.5C 318.5,271.167 327.167,262.5 335.5,253.5C 343.833,245.833 351.833,237.833 359.5,229.5C 362.5,227.167 365.167,224.5 367.5,221.5C 373.167,216.5 378.5,211.167 383.5,205.5C 392.5,197.167 401.167,188.5 409.5,179.5C 422.272,169.128 436.939,163.461 453.5,162.5 Z"/></g>
<g><path style="opacity:0.122" fill="#b5b1ad" d="M 483.5,166.5 C 485.553,166.402 487.22,167.069 488.5,168.5C 486.447,168.598 484.78,167.931 483.5,166.5 Z"/></g>
<g><path style="opacity:1" fill="#f6ded1" d="M 359.5,229.5 C 351.833,237.833 343.833,245.833 335.5,253.5C 335.62,247.974 333.12,246.307 328,248.5C 327.502,245.518 327.335,242.518 327.5,239.5C 324.833,239.5 322.167,239.5 319.5,239.5C 319.5,236.833 319.5,234.167 319.5,231.5C 316.833,231.5 314.167,231.5 311.5,231.5C 311.5,228.833 311.5,226.167 311.5,223.5C 307.833,223.5 304.167,223.5 300.5,223.5C 300.5,220.833 300.5,218.167 300.5,215.5C 296.167,215.5 291.833,215.5 287.5,215.5C 287.5,212.833 287.5,210.167 287.5,207.5C 282.489,207.666 277.489,207.499 272.5,207C 271.531,202.263 271.197,197.43 271.5,192.5C 267.818,193.275 265.318,191.941 264,188.5C 262.667,189.167 261.667,190.167 261,191.5C 260.014,190.829 258.847,190.829 257.5,191.5C 260.789,185.883 264.789,180.883 269.5,176.5C 275.835,174.121 281.502,170.455 286.5,165.5C 287.833,166.833 287.833,168.167 286.5,169.5C 285.252,170.04 284.085,170.707 283,171.5C 281.823,175.492 283.323,177.158 287.5,176.5C 287.565,181.454 288.232,186.287 289.5,191C 294.155,191.499 298.821,191.666 303.5,191.5C 303.751,196.507 304.084,201.507 304.5,206.5C 314.5,207.167 324.5,207.833 334.5,208.5C 335.237,213.412 335.237,218.246 334.5,223C 335,223.5 335.5,224 336,224.5C 340.847,223.448 345.68,223.782 350.5,225.5C 351.705,227.138 353.038,227.471 354.5,226.5C 353.798,227.866 353.798,229.533 354.5,231.5C 355.842,229.995 357.508,229.328 359.5,229.5 Z"/></g>
<g><path style="opacity:0.055" fill="#cccccc" d="M 495.5,172.5 C 497.027,172.427 498.027,173.094 498.5,174.5C 496.973,174.573 495.973,173.906 495.5,172.5 Z"/></g>
<g><path style="opacity:1" fill="#f6dbcc" d="M 335.5,253.5 C 327.167,262.5 318.5,271.167 309.5,279.5C 311.401,276.048 312.901,272.381 314,268.5C 316.941,265.278 316.441,264.945 312.5,267.5C 312.446,266.47 312.112,265.303 311.5,264C 312.449,263.383 313.282,263.549 314,264.5C 314.944,263.737 315.444,262.737 315.5,261.5C 314.714,259.429 313.381,257.762 311.5,256.5C 308.843,255.741 306.177,255.074 303.5,254.5C 302.526,252.257 302.192,249.924 302.5,247.5C 300.167,247.5 297.833,247.5 295.5,247.5C 295.5,245.167 295.5,242.833 295.5,240.5C 292.534,240.89 289.868,240.223 287.5,238.5C 286.904,233.551 286.904,228.551 287.5,223.5C 282.167,223.5 276.833,223.5 271.5,223.5C 271.807,217.907 271.473,212.407 270.5,207C 263.904,206.778 257.404,206.612 251,206.5C 248.749,207.412 246.583,208.412 244.5,209.5C 247.166,202.824 250.833,196.824 255.5,191.5C 256.167,191.5 256.833,191.5 257.5,191.5C 258.847,190.829 260.014,190.829 261,191.5C 261.667,190.167 262.667,189.167 264,188.5C 265.318,191.941 267.818,193.275 271.5,192.5C 271.197,197.43 271.531,202.263 272.5,207C 277.489,207.499 282.489,207.666 287.5,207.5C 287.5,210.167 287.5,212.833 287.5,215.5C 291.833,215.5 296.167,215.5 300.5,215.5C 300.5,218.167 300.5,220.833 300.5,223.5C 304.167,223.5 307.833,223.5 311.5,223.5C 311.5,226.167 311.5,228.833 311.5,231.5C 314.167,231.5 316.833,231.5 319.5,231.5C 319.5,234.167 319.5,236.833 319.5,239.5C 322.167,239.5 324.833,239.5 327.5,239.5C 327.335,242.518 327.502,245.518 328,248.5C 333.12,246.307 335.62,247.974 335.5,253.5 Z"/></g>
<g><path style="opacity:1" fill="#f7d7c5" d="M 309.5,279.5 C 307.833,281.833 305.833,283.833 303.5,285.5C 303.082,284.778 302.416,284.278 301.5,284C 303.67,280.579 306.004,277.245 308.5,274C 307.004,273.493 305.837,273.993 305,275.5C 304.691,274.234 304.191,273.067 303.5,272C 300.854,271.503 298.187,271.336 295.5,271.5C 295.5,268.833 295.5,266.167 295.5,263.5C 292.833,263.5 290.167,263.5 287.5,263.5C 287.5,260.833 287.5,258.167 287.5,255.5C 282.507,255.084 277.507,254.751 272.5,254.5C 271.833,249.833 271.167,245.167 270.5,240.5C 265.821,240.666 261.155,240.499 256.5,240C 254.941,238.004 254.274,235.671 254.5,233C 254.667,231.167 254.833,229.333 255,227.5C 255.333,228.833 255.667,230.167 256,231.5C 256.667,229.167 256.667,226.833 256,224.5C 254.644,223.62 253.144,223.286 251.5,223.5C 250.571,219.873 249.737,216.207 249,212.5C 246.624,216.264 244.79,220.264 243.5,224.5C 242.5,224.5 241.5,224.5 240.5,224.5C 240.5,226.833 240.5,229.167 240.5,231.5C 239.167,231.5 237.833,231.5 236.5,231.5C 235.034,236.693 234.367,242.027 234.5,247.5C 233.732,248.263 233.232,249.263 233,250.5C 232.639,257.199 231.972,263.865 231,270.5C 230.768,269.263 230.268,268.263 229.5,267.5C 230.456,247.005 235.456,227.672 244.5,209.5C 246.583,208.412 248.749,207.412 251,206.5C 257.404,206.612 263.904,206.778 270.5,207C 271.473,212.407 271.807,217.907 271.5,223.5C 276.833,223.5 282.167,223.5 287.5,223.5C 286.904,228.551 286.904,233.551 287.5,238.5C 289.868,240.223 292.534,240.89 295.5,240.5C 295.5,242.833 295.5,245.167 295.5,247.5C 297.833,247.5 300.167,247.5 302.5,247.5C 302.192,249.924 302.526,252.257 303.5,254.5C 306.177,255.074 308.843,255.741 311.5,256.5C 313.381,257.762 314.714,259.429 315.5,261.5C 315.444,262.737 314.944,263.737 314,264.5C 313.282,263.549 312.449,263.383 311.5,264C 312.112,265.303 312.446,266.47 312.5,267.5C 316.441,264.945 316.941,265.278 314,268.5C 312.901,272.381 311.401,276.048 309.5,279.5 Z"/></g>
<g><path style="opacity:0.012" fill="#d8d7d5" d="M 531.5,215.5 C 533.404,215.738 534.738,216.738 535.5,218.5C 533.596,218.262 532.262,217.262 531.5,215.5 Z"/></g>
<g><path style="opacity:0.008" fill="#e7e7e4" d="M 535.5,218.5 C 537.027,218.427 538.027,219.094 538.5,220.5C 536.973,220.573 535.973,219.906 535.5,218.5 Z"/></g>
<g><path style="opacity:0.855" fill="#605e5d" d="M 554.5,226.5 C 557.157,226.162 559.49,226.829 561.5,228.5C 559.146,231.521 556.479,234.188 553.5,236.5C 553.714,234.856 553.38,233.356 552.5,232C 553,231.5 553.5,231 554,230.5C 554.423,231.956 555.256,232.456 556.5,232C 555.273,230.413 555.606,229.079 557.5,228C 556.263,227.768 555.263,227.268 554.5,226.5 Z"/></g>
<g><path style="opacity:1" fill="#dc7f63" d="M 445.5,235.5 C 454.755,234.094 464.088,234.427 473.5,236.5C 475.629,237.203 477.629,238.203 479.5,239.5C 468.426,236.106 457.093,234.773 445.5,235.5 Z"/></g>
<g><path style="opacity:1" fill="#442b1e" d="M 473.5,236.5 C 464.088,234.427 454.755,234.094 445.5,235.5C 444.833,235.5 444.167,235.5 443.5,235.5C 435.284,236.06 427.951,238.727 421.5,243.5C 417.559,245.14 413.892,247.306 410.5,250C 406.631,254.037 402.631,257.87 398.5,261.5C 398.343,260.127 398.51,258.793 399,257.5C 403.416,255.197 403.583,252.53 399.5,249.5C 401.53,247.122 402.53,247.789 402.5,251.5C 404.199,251.66 405.866,251.494 407.5,251C 410.978,248.023 414.311,244.857 417.5,241.5C 419.766,240.686 422.1,240.186 424.5,240C 425.772,238.693 426.772,237.193 427.5,235.5C 429.893,234.905 431.727,233.572 433,231.5C 433.75,232.126 434.584,232.626 435.5,233C 447.5,233.333 459.5,233.667 471.5,234C 472.756,234.417 473.423,235.25 473.5,236.5 Z"/></g>
<g><path style="opacity:1" fill="#e28260" d="M 443.5,235.5 C 440.497,237.262 437.163,238.428 433.5,239C 432.167,239.667 430.833,240.333 429.5,241C 430.094,241.464 430.761,241.631 431.5,241.5C 431.762,242.978 431.429,244.311 430.5,245.5C 428.382,244.054 426.049,243.387 423.5,243.5C 422.833,243.5 422.167,243.5 421.5,243.5C 427.951,238.727 435.284,236.06 443.5,235.5 Z"/></g>
<g><path style="opacity:1" fill="#fd7f50" d="M 431.5,241.5 C 435.081,242.26 438.748,242.76 442.5,243C 444.019,244.351 445.352,245.851 446.5,247.5C 449.19,243.602 450.69,244.268 451,249.5C 454.207,250.255 455.707,252.255 455.5,255.5C 458.852,256.873 461.519,259.207 463.5,262.5C 465.637,264.439 467.97,266.106 470.5,267.5C 471.429,268.689 471.762,270.022 471.5,271.5C 468.784,271.678 466.117,272.178 463.5,273C 468.146,273.181 472.646,274.014 477,275.5C 478.326,275.245 479.326,274.578 480,273.5C 482.46,274.958 484.627,276.791 486.5,279C 485.167,279.333 483.833,279.667 482.5,280C 483.5,281 484.5,282 485.5,283C 488.859,281.789 491.526,282.789 493.5,286C 492.377,287.044 491.044,287.71 489.5,288C 490.362,290.734 491.195,290.901 492,288.5C 493.202,290.677 493.702,293.011 493.5,295.5C 496.788,295.073 499.788,295.74 502.5,297.5C 504.965,296.078 507.631,295.078 510.5,294.5C 511.098,293.205 511.598,291.872 512,290.5C 512.216,284.347 512.382,278.347 512.5,272.5C 513.492,279.982 513.825,287.648 513.5,295.5C 511.761,299.59 510.427,303.923 509.5,308.5C 508.069,308.881 507.236,309.881 507,311.5C 506.433,308.832 505.933,306.166 505.5,303.5C 504.167,303.5 502.833,303.5 501.5,303.5C 501.533,308.099 500.867,312.599 499.5,317C 500.907,319.302 500.741,321.469 499,323.5C 497.897,319.644 497.064,315.644 496.5,311.5C 495.833,312.5 495.167,313.5 494.5,314.5C 491.196,314.322 489.529,312.656 489.5,309.5C 486.5,309.5 483.5,309.5 480.5,309.5C 480.374,307.8 479.707,306.3 478.5,305C 478.759,303.739 479.426,302.739 480.5,302C 478.649,298.142 475.649,295.642 471.5,294.5C 463.854,293.543 456.188,292.876 448.5,292.5C 448.5,291.167 448.5,289.833 448.5,288.5C 452.348,288.76 456.015,288.094 459.5,286.5C 458.52,285.019 457.353,283.685 456,282.5C 455.667,283.5 455.333,284.5 455,285.5C 453.833,283 452,281.167 449.5,280C 450.833,279.667 452.167,279.333 453.5,279C 451.391,277.859 449.558,276.359 448,274.5C 447.506,276.134 447.34,277.801 447.5,279.5C 446.5,279.5 445.5,279.5 444.5,279.5C 444.223,276.552 444.556,273.719 445.5,271C 444.5,270 443.5,269 442.5,268C 439.118,267.824 435.785,267.324 432.5,266.5C 431.691,264.929 431.357,263.262 431.5,261.5C 428.833,261.5 426.167,261.5 423.5,261.5C 423.5,260.5 423.5,259.5 423.5,258.5C 421.167,258.5 418.833,258.5 416.5,258.5C 416.341,255.813 417.175,253.48 419,251.5C 421.382,252.866 423.548,252.533 425.5,250.5C 424.359,249.575 424.359,248.741 425.5,248C 424.552,247.517 423.552,247.351 422.5,247.5C 422.433,246.041 422.766,244.708 423.5,243.5C 426.049,243.387 428.382,244.054 430.5,245.5C 431.429,244.311 431.762,242.978 431.5,241.5 Z"/></g>
<g><path style="opacity:1" fill="#dd7b5d" d="M 479.5,239.5 C 483.984,241.243 488.317,243.243 492.5,245.5C 495.139,247.473 497.473,249.806 499.5,252.5C 495.891,250.02 492.224,247.52 488.5,245C 486.412,243.97 484.245,243.137 482,242.5C 480.69,241.87 479.856,240.87 479.5,239.5 Z"/></g>
<g><path style="opacity:1" fill="#fd784b" d="M 443.5,235.5 C 444.167,235.5 444.833,235.5 445.5,235.5C 457.093,234.773 468.426,236.106 479.5,239.5C 479.856,240.87 480.69,241.87 482,242.5C 484.245,243.137 486.412,243.97 488.5,245C 492.224,247.52 495.891,250.02 499.5,252.5C 501.5,253.167 502.833,254.5 503.5,256.5C 506.792,261.621 509.792,266.954 512.5,272.5C 512.382,278.347 512.216,284.347 512,290.5C 511.598,291.872 511.098,293.205 510.5,294.5C 507.631,295.078 504.965,296.078 502.5,297.5C 499.788,295.74 496.788,295.073 493.5,295.5C 493.702,293.011 493.202,290.677 492,288.5C 491.195,290.901 490.362,290.734 489.5,288C 491.044,287.71 492.377,287.044 493.5,286C 491.526,282.789 488.859,281.789 485.5,283C 484.5,282 483.5,281 482.5,280C 483.833,279.667 485.167,279.333 486.5,279C 484.627,276.791 482.46,274.958 480,273.5C 479.326,274.578 478.326,275.245 477,275.5C 472.646,274.014 468.146,273.181 463.5,273C 466.117,272.178 468.784,271.678 471.5,271.5C 471.762,270.022 471.429,268.689 470.5,267.5C 467.97,266.106 465.637,264.439 463.5,262.5C 461.519,259.207 458.852,256.873 455.5,255.5C 455.707,252.255 454.207,250.255 451,249.5C 450.69,244.268 449.19,243.602 446.5,247.5C 445.352,245.851 444.019,244.351 442.5,243C 438.748,242.76 435.081,242.26 431.5,241.5C 430.761,241.631 430.094,241.464 429.5,241C 430.833,240.333 432.167,239.667 433.5,239C 437.163,238.428 440.497,237.262 443.5,235.5 Z"/></g>
<g><path style="opacity:1" fill="#4e271b" d="M 492.5,245.5 C 497.908,246.458 501.742,249.458 504,254.5C 509.861,259.547 513.695,265.881 515.5,273.5C 512.741,266.991 508.741,261.324 503.5,256.5C 502.833,254.5 501.5,253.167 499.5,252.5C 497.473,249.806 495.139,247.473 492.5,245.5 Z"/></g>
<g><path style="opacity:1" fill="#e98c60" d="M 421.5,243.5 C 420.818,246.675 418.818,248.175 415.5,248C 413.759,249.62 411.925,251.12 410,252.5C 407.313,259.019 402.813,263.686 396.5,266.5C 392.69,270.131 389.357,274.131 386.5,278.5C 384.999,279.752 383.332,280.752 381.5,281.5C 384.185,278.81 386.518,275.81 388.5,272.5C 391.516,269.48 394.183,266.146 396.5,262.5C 397.492,262.672 398.158,262.338 398.5,261.5C 402.631,257.87 406.631,254.037 410.5,250C 413.892,247.306 417.559,245.14 421.5,243.5 Z"/></g>
<g><path style="opacity:1" fill="#fd8654" d="M 421.5,243.5 C 422.167,243.5 422.833,243.5 423.5,243.5C 422.766,244.708 422.433,246.041 422.5,247.5C 423.552,247.351 424.552,247.517 425.5,248C 424.359,248.741 424.359,249.575 425.5,250.5C 423.548,252.533 421.382,252.866 419,251.5C 417.175,253.48 416.341,255.813 416.5,258.5C 418.833,258.5 421.167,258.5 423.5,258.5C 423.5,259.5 423.5,260.5 423.5,261.5C 426.167,261.5 428.833,261.5 431.5,261.5C 431.357,263.262 431.691,264.929 432.5,266.5C 435.785,267.324 439.118,267.824 442.5,268C 443.5,269 444.5,270 445.5,271C 444.556,273.719 444.223,276.552 444.5,279.5C 445.5,279.5 446.5,279.5 447.5,279.5C 447.34,277.801 447.506,276.134 448,274.5C 449.558,276.359 451.391,277.859 453.5,279C 452.167,279.333 450.833,279.667 449.5,280C 452,281.167 453.833,283 455,285.5C 455.333,284.5 455.667,283.5 456,282.5C 457.353,283.685 458.52,285.019 459.5,286.5C 456.015,288.094 452.348,288.76 448.5,288.5C 448.5,289.833 448.5,291.167 448.5,292.5C 456.188,292.876 463.854,293.543 471.5,294.5C 475.649,295.642 478.649,298.142 480.5,302C 479.426,302.739 478.759,303.739 478.5,305C 479.707,306.3 480.374,307.8 480.5,309.5C 483.5,309.5 486.5,309.5 489.5,309.5C 489.529,312.656 491.196,314.322 494.5,314.5C 495.167,313.5 495.833,312.5 496.5,311.5C 497.064,315.644 497.897,319.644 499,323.5C 500.741,321.469 500.907,319.302 499.5,317C 500.867,312.599 501.533,308.099 501.5,303.5C 502.833,303.5 504.167,303.5 505.5,303.5C 505.933,306.166 506.433,308.832 507,311.5C 507.236,309.881 508.069,308.881 509.5,308.5C 507.842,314.785 506.509,321.118 505.5,327.5C 505.5,327.833 505.5,328.167 505.5,328.5C 501.906,331.08 500.24,334.746 500.5,339.5C 498.015,341.49 495.348,343.157 492.5,344.5C 491.504,344.586 490.671,344.252 490,343.5C 488.478,345.741 487.145,348.074 486,350.5C 484.118,346.724 482.785,342.724 482,338.5C 480.387,339.622 479.22,339.122 478.5,337C 473.762,337.233 469.095,337.066 464.5,336.5C 464.666,331.821 464.499,327.155 464,322.5C 463.586,322.957 463.086,323.291 462.5,323.5C 459.002,322.4 455.668,321.733 452.5,321.5C 455.753,320.402 459.086,319.736 462.5,319.5C 462.5,318.167 462.5,316.833 462.5,315.5C 459.482,315.665 456.482,315.498 453.5,315C 451.76,313.306 449.76,312.139 447.5,311.5C 447.5,308.833 447.5,306.167 447.5,303.5C 442.527,302.836 437.527,302.503 432.5,302.5C 432.66,300.801 432.494,299.134 432,297.5C 431.667,297.833 431.333,298.167 431,298.5C 425.594,297.283 425.427,296.116 430.5,295C 425.845,294.501 421.179,294.334 416.5,294.5C 416.5,292.833 416.5,291.167 416.5,289.5C 415.325,289.719 414.325,289.386 413.5,288.5C 415.26,285.788 415.927,282.788 415.5,279.5C 410.493,279.249 405.493,278.916 400.5,278.5C 399.963,275.028 400.963,272.195 403.5,270C 401.86,268.605 400.36,267.105 399,265.5C 398.085,266.328 397.419,267.328 397,268.5C 396.536,267.906 396.369,267.239 396.5,266.5C 402.813,263.686 407.313,259.019 410,252.5C 411.925,251.12 413.759,249.62 415.5,248C 418.818,248.175 420.818,246.675 421.5,243.5 Z"/></g>
<g><path style="opacity:1" fill="#f7d2bd" d="M 303.5,285.5 C 300.167,289.167 296.833,292.833 293.5,296.5C 288.167,301.5 282.833,306.5 277.5,311.5C 277.712,308.442 279.045,305.942 281.5,304C 280.707,302.915 280.04,301.748 279.5,300.5C 280.981,299.52 282.315,298.353 283.5,297C 279.834,296.61 279.668,295.443 283,293.5C 283.494,291.866 283.66,290.199 283.5,288.5C 285.635,288.853 286.968,288.02 287.5,286C 285.888,284.518 284.888,282.685 284.5,280.5C 280.548,279.728 276.548,279.395 272.5,279.5C 271.908,276.873 271.575,274.206 271.5,271.5C 261.797,271.475 252.13,271.641 242.5,272C 239.833,269.333 239.833,266.667 242.5,264C 241.207,263.51 239.873,263.343 238.5,263.5C 237.37,257.462 236.87,251.462 237,245.5C 236.583,246.756 235.75,247.423 234.5,247.5C 234.367,242.027 235.034,236.693 236.5,231.5C 237.833,231.5 239.167,231.5 240.5,231.5C 240.5,229.167 240.5,226.833 240.5,224.5C 241.5,224.5 242.5,224.5 243.5,224.5C 244.79,220.264 246.624,216.264 249,212.5C 249.737,216.207 250.571,219.873 251.5,223.5C 253.144,223.286 254.644,223.62 256,224.5C 256.667,226.833 256.667,229.167 256,231.5C 255.667,230.167 255.333,228.833 255,227.5C 254.833,229.333 254.667,231.167 254.5,233C 254.274,235.671 254.941,238.004 256.5,240C 261.155,240.499 265.821,240.666 270.5,240.5C 271.167,245.167 271.833,249.833 272.5,254.5C 277.507,254.751 282.507,255.084 287.5,255.5C 287.5,258.167 287.5,260.833 287.5,263.5C 290.167,263.5 292.833,263.5 295.5,263.5C 295.5,266.167 295.5,268.833 295.5,271.5C 298.187,271.336 300.854,271.503 303.5,272C 304.191,273.067 304.691,274.234 305,275.5C 305.837,273.993 307.004,273.493 308.5,274C 306.004,277.245 303.67,280.579 301.5,284C 302.416,284.278 303.082,284.778 303.5,285.5 Z"/></g>
<g><path style="opacity:1" fill="#432c21" d="M 396.5,262.5 C 394.183,266.146 391.516,269.48 388.5,272.5C 385.141,275.529 381.808,278.529 378.5,281.5C 379.729,278.43 381.229,275.43 383,272.5C 383.414,272.957 383.914,273.291 384.5,273.5C 385.024,269.403 387.358,267.403 391.5,267.5C 392.32,263.842 390.987,261.509 387.5,260.5C 389.909,259.278 391.742,259.945 393,262.5C 394.393,259.875 395.559,259.875 396.5,262.5 Z"/></g>
<g><path style="opacity:1" fill="#d79575" d="M 388.5,272.5 C 386.518,275.81 384.185,278.81 381.5,281.5C 375.163,287.835 368.497,293.835 361.5,299.5C 362.943,296.923 364.61,294.59 366.5,292.5C 370.48,288.855 374.48,285.189 378.5,281.5C 381.808,278.529 385.141,275.529 388.5,272.5 Z"/></g>
<g><path style="opacity:0.773" fill="#da8a6d" d="M 503.5,256.5 C 508.741,261.324 512.741,266.991 515.5,273.5C 515.833,273.5 516.167,273.5 516.5,273.5C 515.826,280.997 514.826,288.331 513.5,295.5C 513.825,287.648 513.492,279.982 512.5,272.5C 509.792,266.954 506.792,261.621 503.5,256.5 Z"/></g>
<g><path style="opacity:1" fill="#f9ceb5" d="M 277.5,311.5 C 273.833,315.833 269.833,319.833 265.5,323.5C 264.459,317.21 263.792,310.877 263.5,304.5C 260.873,303.908 258.206,303.575 255.5,303.5C 255.714,305.144 255.38,306.644 254.5,308C 252.19,308.497 249.857,308.663 247.5,308.5C 247.762,309.978 247.429,311.311 246.5,312.5C 244.291,311.894 242.124,311.227 240,310.5C 239.667,310.833 239.333,311.167 239,311.5C 238.502,309.473 238.669,307.473 239.5,305.5C 238.437,300.564 237.104,300.397 235.5,305C 236.287,307.099 236.62,309.266 236.5,311.5C 235.25,311.423 234.417,310.756 234,309.5C 232.174,296.876 230.674,284.209 229.5,271.5C 229.5,270.167 229.5,268.833 229.5,267.5C 230.268,268.263 230.768,269.263 231,270.5C 231.972,263.865 232.639,257.199 233,250.5C 233.232,249.263 233.732,248.263 234.5,247.5C 235.75,247.423 236.583,246.756 237,245.5C 236.87,251.462 237.37,257.462 238.5,263.5C 239.873,263.343 241.207,263.51 242.5,264C 239.833,266.667 239.833,269.333 242.5,272C 252.13,271.641 261.797,271.475 271.5,271.5C 271.575,274.206 271.908,276.873 272.5,279.5C 276.548,279.395 280.548,279.728 284.5,280.5C 284.888,282.685 285.888,284.518 287.5,286C 286.968,288.02 285.635,288.853 283.5,288.5C 283.66,290.199 283.494,291.866 283,293.5C 279.668,295.443 279.834,296.61 283.5,297C 282.315,298.353 280.981,299.52 279.5,300.5C 280.04,301.748 280.707,302.915 281.5,304C 279.045,305.942 277.712,308.442 277.5,311.5 Z"/></g>
<g><path style="opacity:1" fill="#fe8c58" d="M 492.5,344.5 C 489.816,346.98 487.483,349.814 485.5,353C 487.037,354.11 487.703,355.61 487.5,357.5C 485.976,356.826 484.642,355.826 483.5,354.5C 482.25,356.785 480.417,358.451 478,359.5C 476.831,358.991 475.998,358.158 475.5,357C 471.833,356.667 468.167,356.333 464.5,356C 463.703,352.255 463.203,348.421 463,344.5C 460.038,343.241 457.205,341.741 454.5,340C 451.377,339.794 448.377,339.127 445.5,338C 445.043,337.586 444.709,337.086 444.5,336.5C 447.167,335.833 449.833,335.167 452.5,334.5C 451.345,333.05 449.845,332.05 448,331.5C 447.691,330.234 447.191,329.067 446.5,328C 444.112,327.697 441.945,326.863 440,325.5C 437.599,326.602 435.099,326.769 432.5,326C 429.397,324.561 426.564,322.727 424,320.5C 423.577,321.956 422.744,322.456 421.5,322C 420.544,318.606 420.211,315.106 420.5,311.5C 423.187,311.664 425.854,311.497 428.5,311C 427.128,310.598 425.795,310.098 424.5,309.5C 421.897,310.562 419.23,310.728 416.5,310C 415.604,304.939 412.604,302.773 407.5,303.5C 409.251,296.893 406.918,294.393 400.5,296C 400.002,297.158 399.169,297.991 398,298.5C 394.714,296.218 391.714,293.551 389,290.5C 387.53,286.622 386.697,282.622 386.5,278.5C 389.357,274.131 392.69,270.131 396.5,266.5C 396.369,267.239 396.536,267.906 397,268.5C 397.419,267.328 398.085,266.328 399,265.5C 400.36,267.105 401.86,268.605 403.5,270C 400.963,272.195 399.963,275.028 400.5,278.5C 405.493,278.916 410.493,279.249 415.5,279.5C 415.927,282.788 415.26,285.788 413.5,288.5C 414.325,289.386 415.325,289.719 416.5,289.5C 416.5,291.167 416.5,292.833 416.5,294.5C 421.179,294.334 425.845,294.501 430.5,295C 425.427,296.116 425.594,297.283 431,298.5C 431.333,298.167 431.667,297.833 432,297.5C 432.494,299.134 432.66,300.801 432.5,302.5C 437.527,302.503 442.527,302.836 447.5,303.5C 447.5,306.167 447.5,308.833 447.5,311.5C 449.76,312.139 451.76,313.306 453.5,315C 456.482,315.498 459.482,315.665 462.5,315.5C 462.5,316.833 462.5,318.167 462.5,319.5C 459.086,319.736 455.753,320.402 452.5,321.5C 455.668,321.733 459.002,322.4 462.5,323.5C 463.086,323.291 463.586,322.957 464,322.5C 464.499,327.155 464.666,331.821 464.5,336.5C 469.095,337.066 473.762,337.233 478.5,337C 479.22,339.122 480.387,339.622 482,338.5C 482.785,342.724 484.118,346.724 486,350.5C 487.145,348.074 488.478,345.741 490,343.5C 490.671,344.252 491.504,344.586 492.5,344.5 Z"/></g>
<g><path style="opacity:1" fill="#fd915c" d="M 386.5,278.5 C 386.697,282.622 387.53,286.622 389,290.5C 391.714,293.551 394.714,296.218 398,298.5C 399.169,297.991 400.002,297.158 400.5,296C 406.918,294.393 409.251,296.893 407.5,303.5C 412.604,302.773 415.604,304.939 416.5,310C 419.23,310.728 421.897,310.562 424.5,309.5C 425.795,310.098 427.128,310.598 428.5,311C 425.854,311.497 423.187,311.664 420.5,311.5C 420.211,315.106 420.544,318.606 421.5,322C 422.744,322.456 423.577,321.956 424,320.5C 426.564,322.727 429.397,324.561 432.5,326C 435.099,326.769 437.599,326.602 440,325.5C 441.945,326.863 444.112,327.697 446.5,328C 447.191,329.067 447.691,330.234 448,331.5C 449.845,332.05 451.345,333.05 452.5,334.5C 449.833,335.167 447.167,335.833 444.5,336.5C 444.709,337.086 445.043,337.586 445.5,338C 448.377,339.127 451.377,339.794 454.5,340C 457.205,341.741 460.038,343.241 463,344.5C 463.203,348.421 463.703,352.255 464.5,356C 468.167,356.333 471.833,356.667 475.5,357C 475.998,358.158 476.831,358.991 478,359.5C 480.417,358.451 482.25,356.785 483.5,354.5C 484.642,355.826 485.976,356.826 487.5,357.5C 485.925,359.547 484.925,361.881 484.5,364.5C 483.078,365.925 481.411,366.925 479.5,367.5C 477.396,367.201 475.396,367.534 473.5,368.5C 474.246,369.736 474.579,371.07 474.5,372.5C 472.167,371.833 469.833,371.167 467.5,370.5C 467.627,367.755 466.46,365.755 464,364.5C 458.803,366.42 453.303,367.087 447.5,366.5C 447.5,361.5 447.5,356.5 447.5,351.5C 440.5,351.5 433.5,351.5 426.5,351.5C 426.662,349.473 426.495,347.473 426,345.5C 422.261,343.373 418.927,340.707 416,337.5C 415.798,335.744 415.298,334.078 414.5,332.5C 410.553,328.157 405.553,326.49 399.5,327.5C 399.665,324.482 399.498,321.482 399,318.5C 398.167,317.667 397.333,316.833 396.5,316C 392.339,314.692 388.172,313.525 384,312.5C 382.932,317.02 381.098,316.853 378.5,312C 380.134,311.506 381.801,311.34 383.5,311.5C 384.984,304.588 383.151,298.921 378,294.5C 375.332,296.692 374.832,299.359 376.5,302.5C 374.833,303.833 373.167,303.833 371.5,302.5C 373.092,300.775 372.758,299.775 370.5,299.5C 369.859,298.518 369.193,297.518 368.5,296.5C 371.473,292.86 374.806,289.527 378.5,286.5C 379.814,287.313 380.981,288.313 382,289.5C 383.298,288.44 384.465,287.274 385.5,286C 385.167,285.5 384.833,285 384.5,284.5C 380.884,285.984 379.884,284.984 381.5,281.5C 383.332,280.752 384.999,279.752 386.5,278.5 Z"/></g>
<g><path style="opacity:1" fill="#3f2e1a" d="M 366.5,292.5 C 364.61,294.59 362.943,296.923 361.5,299.5C 359.174,301.455 356.841,303.455 354.5,305.5C 354.703,300.964 357.036,298.298 361.5,297.5C 361.5,294.167 363.167,292.5 366.5,292.5 Z"/></g>
<g><path style="opacity:0.455" fill="#e29170" d="M 513.5,295.5 C 512.377,306.657 509.711,317.324 505.5,327.5C 506.509,321.118 507.842,314.785 509.5,308.5C 510.427,303.923 511.761,299.59 513.5,295.5 Z"/></g>
<g><path style="opacity:0.681" fill="#f5dbcc" d="M 229.5,271.5 C 230.674,284.209 232.174,296.876 234,309.5C 234.417,310.756 235.25,311.423 236.5,311.5C 237.058,316.516 237.725,321.516 238.5,326.5C 231.119,308.828 228.119,290.494 229.5,271.5 Z"/></g>
<g><path style="opacity:1" fill="#f8c8ab" d="M 265.5,323.5 C 259.269,329.642 253.269,335.975 247.5,342.5C 246.833,342.833 246.167,343.167 245.5,343.5C 245.167,343.5 244.833,343.5 244.5,343.5C 242.789,337.742 240.789,332.075 238.5,326.5C 237.725,321.516 237.058,316.516 236.5,311.5C 236.62,309.266 236.287,307.099 235.5,305C 237.104,300.397 238.437,300.564 239.5,305.5C 238.669,307.473 238.502,309.473 239,311.5C 239.333,311.167 239.667,310.833 240,310.5C 242.124,311.227 244.291,311.894 246.5,312.5C 247.429,311.311 247.762,309.978 247.5,308.5C 249.857,308.663 252.19,308.497 254.5,308C 255.38,306.644 255.714,305.144 255.5,303.5C 258.206,303.575 260.873,303.908 263.5,304.5C 263.792,310.877 264.459,317.21 265.5,323.5 Z"/></g>
<g><path style="opacity:1" fill="#fd9760" d="M 479.5,367.5 C 477.92,372.249 474.754,375.582 470,377.5C 469.517,378.448 469.351,379.448 469.5,380.5C 468.5,380.5 467.5,380.5 466.5,380.5C 466.5,381.5 466.5,382.5 466.5,383.5C 463.695,384.764 460.862,384.764 458,383.5C 454.846,384.434 455.012,385.101 458.5,385.5C 458.737,386.791 458.404,387.791 457.5,388.5C 454.491,386.898 451.658,384.898 449,382.5C 443.195,382.306 437.362,382.639 431.5,383.5C 431.167,373.167 425.833,367.833 415.5,367.5C 415.5,364.833 415.5,362.167 415.5,359.5C 414.448,359.649 413.448,359.483 412.5,359C 407.587,353.786 401.587,351.12 394.5,351C 393.333,350.5 392.5,349.667 392,348.5C 390.246,350.25 388.079,350.917 385.5,350.5C 385.827,345.456 385.494,340.456 384.5,335.5C 378.876,334.907 373.209,334.74 367.5,335C 363.145,334.038 360.479,331.538 359.5,327.5C 357.5,327.5 355.5,327.5 353.5,327.5C 353.768,324.881 353.435,322.381 352.5,320C 353.126,319.25 353.626,318.416 354,317.5C 355.401,319.192 357.234,319.859 359.5,319.5C 358.476,310.973 361.31,308.973 368,313.5C 368.651,311.765 368.485,310.098 367.5,308.5C 365.194,306.907 362.861,305.407 360.5,304C 361.701,303.097 362.535,301.931 363,300.5C 364.508,302.838 366.675,303.838 369.5,303.5C 369.433,302.041 369.766,300.708 370.5,299.5C 372.758,299.775 373.092,300.775 371.5,302.5C 373.167,303.833 374.833,303.833 376.5,302.5C 374.832,299.359 375.332,296.692 378,294.5C 383.151,298.921 384.984,304.588 383.5,311.5C 381.801,311.34 380.134,311.506 378.5,312C 381.098,316.853 382.932,317.02 384,312.5C 388.172,313.525 392.339,314.692 396.5,316C 397.333,316.833 398.167,317.667 399,318.5C 399.498,321.482 399.665,324.482 399.5,327.5C 405.553,326.49 410.553,328.157 414.5,332.5C 415.298,334.078 415.798,335.744 416,337.5C 418.927,340.707 422.261,343.373 426,345.5C 426.495,347.473 426.662,349.473 426.5,351.5C 433.5,351.5 440.5,351.5 447.5,351.5C 447.5,356.5 447.5,361.5 447.5,366.5C 453.303,367.087 458.803,366.42 464,364.5C 466.46,365.755 467.627,367.755 467.5,370.5C 469.833,371.167 472.167,371.833 474.5,372.5C 474.579,371.07 474.246,369.736 473.5,368.5C 475.396,367.534 477.396,367.201 479.5,367.5 Z"/></g>
<g><path style="opacity:1" fill="#fd9d66" d="M 381.5,281.5 C 379.884,284.984 380.884,285.984 384.5,284.5C 384.833,285 385.167,285.5 385.5,286C 384.465,287.274 383.298,288.44 382,289.5C 380.981,288.313 379.814,287.313 378.5,286.5C 374.806,289.527 371.473,292.86 368.5,296.5C 369.193,297.518 369.859,298.518 370.5,299.5C 369.766,300.708 369.433,302.041 369.5,303.5C 366.675,303.838 364.508,302.838 363,300.5C 362.535,301.931 361.701,303.097 360.5,304C 362.861,305.407 365.194,306.907 367.5,308.5C 368.485,310.098 368.651,311.765 368,313.5C 361.31,308.973 358.476,310.973 359.5,319.5C 357.234,319.859 355.401,319.192 354,317.5C 353.626,318.416 353.126,319.25 352.5,320C 353.435,322.381 353.768,324.881 353.5,327.5C 355.5,327.5 357.5,327.5 359.5,327.5C 360.479,331.538 363.145,334.038 367.5,335C 373.209,334.74 378.876,334.907 384.5,335.5C 385.494,340.456 385.827,345.456 385.5,350.5C 388.079,350.917 390.246,350.25 392,348.5C 392.5,349.667 393.333,350.5 394.5,351C 401.587,351.12 407.587,353.786 412.5,359C 413.448,359.483 414.448,359.649 415.5,359.5C 415.5,362.167 415.5,364.833 415.5,367.5C 425.833,367.833 431.167,373.167 431.5,383.5C 437.362,382.639 443.195,382.306 449,382.5C 451.658,384.898 454.491,386.898 457.5,388.5C 453.452,392.26 448.786,394.76 443.5,396C 439.305,398.594 435.305,401.427 431.5,404.5C 426.367,404.079 421.534,405.079 417,407.5C 411.352,405.649 405.519,404.982 399.5,405.5C 399.5,404.167 399.5,402.833 399.5,401.5C 404.88,401.324 410.213,401.658 415.5,402.5C 415.643,400.738 415.309,399.071 414.5,397.5C 409.533,396.671 404.533,396.171 399.5,396C 397.246,395.376 395.579,394.043 394.5,392C 391.5,391.667 388.5,391.333 385.5,391C 383.124,381.494 377.124,376.16 367.5,375C 368.641,374.259 368.641,373.425 367.5,372.5C 365.415,371.459 363.748,369.959 362.5,368C 365.849,367.911 366.349,366.744 364,364.5C 359.769,361.057 355.769,357.39 352,353.5C 351.808,355.577 351.308,357.577 350.5,359.5C 351.179,349.366 346.512,344.2 336.5,344C 335.726,341.595 335.226,339.095 335,336.5C 332.353,338.959 329.52,339.625 326.5,338.5C 326.389,337.883 326.056,337.383 325.5,337C 330.222,332.402 335.055,327.902 340,323.5C 342.08,320.935 343.913,318.268 345.5,315.5C 348.158,311.843 351.158,308.509 354.5,305.5C 356.841,303.455 359.174,301.455 361.5,299.5C 368.497,293.835 375.163,287.835 381.5,281.5 Z"/></g>
<g><path style="opacity:1" fill="#482f23" d="M 341.5,318.5 C 337.833,322.833 333.833,326.833 329.5,330.5C 329.377,326.96 331.043,324.96 334.5,324.5C 334.5,323.5 334.5,322.5 334.5,321.5C 335.5,321.5 336.5,321.5 337.5,321.5C 337.5,320.5 337.5,319.5 337.5,318.5C 338.833,318.5 340.167,318.5 341.5,318.5 Z"/></g>
<g><path style="opacity:1" fill="#e6a27e" d="M 345.5,315.5 C 343.913,318.268 342.08,320.935 340,323.5C 335.055,327.902 330.222,332.402 325.5,337C 326.056,337.383 326.389,337.883 326.5,338.5C 325.833,338.833 325.167,339.167 324.5,339.5C 323.5,339.5 322.5,339.5 321.5,339.5C 324.116,336.545 326.782,333.545 329.5,330.5C 333.833,326.833 337.833,322.833 341.5,318.5C 342.833,317.5 344.167,316.5 345.5,315.5 Z"/></g>
<g><path style="opacity:0.239" fill="#eaa78b" d="M 505.5,328.5 C 504.072,332.35 502.406,336.017 500.5,339.5C 500.24,334.746 501.906,331.08 505.5,328.5 Z"/></g>
<g><path style="opacity:1" fill="#3a2e28" d="M 293.5,296.5 C 293.938,296.435 294.272,296.601 294.5,297C 292.306,300.105 289.64,302.772 286.5,305C 287.833,306.667 287.833,308.333 286.5,310C 284.693,311.236 282.693,311.57 280.5,311C 277.376,314.825 273.876,318.325 270,321.5C 269.667,322.833 269.333,324.167 269,325.5C 268.586,325.043 268.086,324.709 267.5,324.5C 262.123,330.175 256.79,335.841 251.5,341.5C 250.311,342.429 248.978,342.762 247.5,342.5C 253.269,335.975 259.269,329.642 265.5,323.5C 269.833,319.833 273.833,315.833 277.5,311.5C 282.833,306.5 288.167,301.5 293.5,296.5 Z"/></g>
<g><path style="opacity:1" fill="#fda56d" d="M 431.5,404.5 C 431.5,404.833 431.5,405.167 431.5,405.5C 425.497,405.548 420.164,407.381 415.5,411C 412.833,411.333 410.167,411.667 407.5,412C 406.244,412.417 405.577,413.25 405.5,414.5C 400.5,414.5 395.5,414.5 390.5,414.5C 386.773,414.805 384.106,413.305 382.5,410C 379.621,409.043 377.121,409.543 375,411.5C 372.821,410.238 370.655,408.905 368.5,407.5C 367.77,405.659 367.103,403.825 366.5,402C 361.798,401.828 357.132,401.328 352.5,400.5C 356.662,399.744 360.829,399.077 365,398.5C 365.5,398.167 366,397.833 366.5,397.5C 365.675,396.614 364.675,396.281 363.5,396.5C 363.5,394.833 363.5,393.167 363.5,391.5C 360.167,391.5 356.833,391.5 353.5,391.5C 352.386,386.371 351.719,386.371 351.5,391.5C 348.833,391.5 346.167,391.5 343.5,391.5C 342.442,387.108 339.775,384.442 335.5,383.5C 335.703,381.61 335.037,380.11 333.5,379C 327.789,376.532 321.789,374.532 315.5,373C 314.134,371.4 313.134,369.567 312.5,367.5C 309.536,369.121 307.536,368.288 306.5,365C 305.207,364.51 303.873,364.343 302.5,364.5C 303.2,360.001 305.7,358.335 310,359.5C 310.912,356.802 312.579,354.135 315,351.5C 319.137,354.026 320.47,352.693 319,347.5C 318.346,348.696 317.846,348.696 317.5,347.5C 320.251,345.09 322.585,342.423 324.5,339.5C 325.167,339.167 325.833,338.833 326.5,338.5C 329.52,339.625 332.353,338.959 335,336.5C 335.226,339.095 335.726,341.595 336.5,344C 346.512,344.2 351.179,349.366 350.5,359.5C 351.308,357.577 351.808,355.577 352,353.5C 355.769,357.39 359.769,361.057 364,364.5C 366.349,366.744 365.849,367.911 362.5,368C 363.748,369.959 365.415,371.459 367.5,372.5C 368.641,373.425 368.641,374.259 367.5,375C 377.124,376.16 383.124,381.494 385.5,391C 388.5,391.333 391.5,391.667 394.5,392C 395.579,394.043 397.246,395.376 399.5,396C 404.533,396.171 409.533,396.671 414.5,397.5C 415.309,399.071 415.643,400.738 415.5,402.5C 410.213,401.658 404.88,401.324 399.5,401.5C 399.5,402.833 399.5,404.167 399.5,405.5C 405.519,404.982 411.352,405.649 417,407.5C 421.534,405.079 426.367,404.079 431.5,404.5 Z"/></g>
<g><path style="opacity:1" fill="#f09668" d="M 500.5,339.5 C 498.24,345.033 495.24,350.033 491.5,354.5C 489.57,354.771 488.236,355.771 487.5,357.5C 487.703,355.61 487.037,354.11 485.5,353C 487.483,349.814 489.816,346.98 492.5,344.5C 495.348,343.157 498.015,341.49 500.5,339.5 Z"/></g>
<g><path style="opacity:1" fill="#3c2c20" d="M 313.5,346.5 C 308.473,351.527 303.473,356.527 298.5,361.5C 297.562,358.152 298.562,355.318 301.5,353C 305.168,350.152 309.168,347.985 313.5,346.5 Z"/></g>
<g><path style="opacity:0.141" fill="#cdcdcd" d="M 244.5,343.5 C 244.833,343.5 245.167,343.5 245.5,343.5C 241.167,348.5 236.5,353.167 231.5,357.5C 235.105,352.226 239.438,347.559 244.5,343.5 Z"/></g>
<g><path style="opacity:0.412" fill="#e8b89d" d="M 491.5,354.5 C 489.938,358.392 487.605,361.725 484.5,364.5C 484.925,361.881 485.925,359.547 487.5,357.5C 488.236,355.771 489.57,354.771 491.5,354.5 Z"/></g>
<g><path style="opacity:1" fill="#fdac74" d="M 321.5,339.5 C 322.5,339.5 323.5,339.5 324.5,339.5C 322.585,342.423 320.251,345.09 317.5,347.5C 317.846,348.696 318.346,348.696 319,347.5C 320.47,352.693 319.137,354.026 315,351.5C 312.579,354.135 310.912,356.802 310,359.5C 305.7,358.335 303.2,360.001 302.5,364.5C 303.873,364.343 305.207,364.51 306.5,365C 307.536,368.288 309.536,369.121 312.5,367.5C 313.134,369.567 314.134,371.4 315.5,373C 321.789,374.532 327.789,376.532 333.5,379C 335.037,380.11 335.703,381.61 335.5,383.5C 339.775,384.442 342.442,387.108 343.5,391.5C 346.167,391.5 348.833,391.5 351.5,391.5C 351.719,386.371 352.386,386.371 353.5,391.5C 356.833,391.5 360.167,391.5 363.5,391.5C 363.5,393.167 363.5,394.833 363.5,396.5C 364.675,396.281 365.675,396.614 366.5,397.5C 366,397.833 365.5,398.167 365,398.5C 360.829,399.077 356.662,399.744 352.5,400.5C 357.132,401.328 361.798,401.828 366.5,402C 367.103,403.825 367.77,405.659 368.5,407.5C 370.655,408.905 372.821,410.238 375,411.5C 377.121,409.543 379.621,409.043 382.5,410C 384.106,413.305 386.773,414.805 390.5,414.5C 389.737,415.268 388.737,415.768 387.5,416C 374.418,417.018 361.418,416.518 348.5,414.5C 347.09,414.132 346.09,413.299 345.5,412C 338.345,412.211 331.678,410.545 325.5,407C 316.294,406.228 308.627,402.561 302.5,396C 297.768,392.967 292.768,390.467 287.5,388.5C 286.101,385.946 284.101,384.28 281.5,383.5C 281.5,382.5 281.5,381.5 281.5,380.5C 282.833,380.5 284.167,380.5 285.5,380.5C 285.358,384.223 286.691,385.056 289.5,383C 287.063,381.233 286.396,379.067 287.5,376.5C 290.311,376.645 293.145,376.645 296,376.5C 296.755,373.503 295.922,371.003 293.5,369C 300.697,361.469 308.197,354.302 316,347.5C 318.08,344.935 319.913,342.268 321.5,339.5 Z"/></g>
<g><path style="opacity:0.278" fill="#f3cdb4" d="M 484.5,364.5 C 479.901,372.101 473.901,378.434 466.5,383.5C 466.5,382.5 466.5,381.5 466.5,380.5C 467.5,380.5 468.5,380.5 469.5,380.5C 469.351,379.448 469.517,378.448 470,377.5C 474.754,375.582 477.92,372.249 479.5,367.5C 481.411,366.925 483.078,365.925 484.5,364.5 Z"/></g>
<g><path style="opacity:1" fill="#4b3122" d="M 297.5,362.5 C 292.167,368.167 286.833,373.833 281.5,379.5C 280.833,379.833 280.167,380.167 279.5,380.5C 278.766,379.292 278.433,377.959 278.5,376.5C 279.675,376.719 280.675,376.386 281.5,375.5C 284.214,371.84 287.547,369.174 291.5,367.5C 291.869,363.438 293.869,361.771 297.5,362.5 Z"/></g>
<g><path style="opacity:1" fill="#efae7e" d="M 321.5,339.5 C 319.913,342.268 318.08,344.935 316,347.5C 308.197,354.302 300.697,361.469 293.5,369C 295.922,371.003 296.755,373.503 296,376.5C 293.145,376.645 290.311,376.645 287.5,376.5C 286.396,379.067 287.063,381.233 289.5,383C 286.691,385.056 285.358,384.223 285.5,380.5C 284.167,380.5 282.833,380.5 281.5,380.5C 281.5,380.167 281.5,379.833 281.5,379.5C 286.833,373.833 292.167,368.167 297.5,362.5C 297.5,361.833 297.833,361.5 298.5,361.5C 303.473,356.527 308.473,351.527 313.5,346.5C 316.192,344.138 318.859,341.804 321.5,339.5 Z"/></g>
<g><path style="opacity:0.161" fill="#cac8c6" d="M 207.5,381.5 C 202.833,386.833 197.833,391.833 192.5,396.5C 196.5,390.5 201.5,385.5 207.5,381.5 Z"/></g>
<g><path style="opacity:0.173" fill="#edb290" d="M 466.5,383.5 C 456.292,393.107 444.626,400.44 431.5,405.5C 431.5,405.167 431.5,404.833 431.5,404.5C 435.305,401.427 439.305,398.594 443.5,396C 448.786,394.76 453.452,392.26 457.5,388.5C 458.404,387.791 458.737,386.791 458.5,385.5C 455.012,385.101 454.846,384.434 458,383.5C 460.862,384.764 463.695,384.764 466.5,383.5 Z"/></g>
<g><path style="opacity:0.161" fill="#cdcac9" d="M 191.5,397.5 C 189.5,400.167 187.167,402.5 184.5,404.5C 185.833,401.167 188.167,398.833 191.5,397.5 Z"/></g>
<g><path style="opacity:0.212" fill="#efbc9c" d="M 431.5,405.5 C 423.474,410.065 414.808,413.065 405.5,414.5C 405.577,413.25 406.244,412.417 407.5,412C 410.167,411.667 412.833,411.333 415.5,411C 420.164,407.381 425.497,405.548 431.5,405.5 Z"/></g>
<g><path style="opacity:0.208" fill="#cdc9c5" d="M 183.5,405.5 C 180.5,409.167 177.167,412.5 173.5,415.5C 175.833,411.167 179.167,407.833 183.5,405.5 Z"/></g>
<g><path style="opacity:0.388" fill="#eebb93" d="M 281.5,379.5 C 281.5,379.833 281.5,380.167 281.5,380.5C 281.5,381.5 281.5,382.5 281.5,383.5C 284.101,384.28 286.101,385.946 287.5,388.5C 292.768,390.467 297.768,392.967 302.5,396C 308.627,402.561 316.294,406.228 325.5,407C 331.678,410.545 338.345,412.211 345.5,412C 346.09,413.299 347.09,414.132 348.5,414.5C 361.418,416.518 374.418,417.018 387.5,416C 388.737,415.768 389.737,415.268 390.5,414.5C 395.5,414.5 400.5,414.5 405.5,414.5C 357.904,424.601 315.238,414.268 277.5,383.5C 277.932,382.29 278.599,381.29 279.5,380.5C 280.167,380.167 280.833,379.833 281.5,379.5 Z"/></g>
</svg>
